<svg xmlns="http://www.w3.org/2000/svg" xmlns:xlink="http://www.w3.org/1999/xlink" width="400" zoomAndPan="magnify" viewBox="0 0 300 149.999998" height="200" preserveAspectRatio="xMidYMid meet" version="1.0"><defs><g/></defs><g fill="#000000" fill-opacity="1"><g transform="translate(75.138997, 111.388101)"><g><path d="M 9.296875 0 L 9.296875 -73.875 L 24.96875 -73.875 L 24.96875 -12.9375 L 54.921875 -12.9375 L 54.921875 0 Z M 9.296875 0 "/></g></g></g><g fill="#000000" fill-opacity="1"><g transform="translate(133.598459, 111.388101)"><g><path d="M 9.296875 0 L 9.296875 -73.875 L 24.96875 -73.875 L 24.96875 0 Z M 9.296875 0 "/></g></g></g><g fill="#000000" fill-opacity="1"><g transform="translate(167.855581, 111.388101)"><g><path d="M 52.90625 -20.515625 C 52.90625 -13.847656 50.503906 -8.59375 45.703125 -4.75 C 40.898438 -0.90625 34.222656 1.015625 25.671875 1.015625 C 17.785156 1.015625 10.8125 -0.46875 4.75 -3.4375 L 4.75 -17.984375 C 9.738281 -15.765625 13.957031 -14.195312 17.40625 -13.28125 C 20.863281 -12.375 24.019531 -11.921875 26.875 -11.921875 C 30.3125 -11.921875 32.945312 -12.578125 34.78125 -13.890625 C 36.625 -15.203125 37.546875 -17.15625 37.546875 -19.75 C 37.546875 -21.207031 37.140625 -22.5 36.328125 -23.625 C 35.523438 -24.75 34.335938 -25.832031 32.765625 -26.875 C 31.203125 -27.925781 28.007812 -29.597656 23.1875 -31.890625 C 18.675781 -34.003906 15.289062 -36.035156 13.03125 -37.984375 C 10.78125 -39.941406 8.976562 -42.21875 7.625 -44.8125 C 6.28125 -47.40625 5.609375 -50.441406 5.609375 -53.921875 C 5.609375 -60.453125 7.820312 -65.585938 12.25 -69.328125 C 16.675781 -73.066406 22.800781 -74.9375 30.625 -74.9375 C 34.457031 -74.9375 38.117188 -74.476562 41.609375 -73.5625 C 45.097656 -72.65625 48.742188 -71.378906 52.546875 -69.734375 L 47.5 -57.546875 C 43.550781 -59.171875 40.289062 -60.300781 37.71875 -60.9375 C 35.144531 -61.582031 32.609375 -61.90625 30.109375 -61.90625 C 27.148438 -61.90625 24.878906 -61.210938 23.296875 -59.828125 C 21.710938 -58.441406 20.921875 -56.640625 20.921875 -54.421875 C 20.921875 -53.035156 21.238281 -51.828125 21.875 -50.796875 C 22.519531 -49.773438 23.539062 -48.785156 24.9375 -47.828125 C 26.332031 -46.867188 29.640625 -45.140625 34.859375 -42.640625 C 41.765625 -39.335938 46.5 -36.023438 49.0625 -32.703125 C 51.625 -29.390625 52.90625 -25.328125 52.90625 -20.515625 Z M 52.90625 -20.515625 "/></g></g></g></svg>